<svg id="visual" viewBox="0 0 900 600" width="900" height="600" xmlns="http://www.w3.org/2000/svg" xmlns:xlink="http://www.w3.org/1999/xlink" version="1.1"><rect x="0" y="0" width="900" height="600" fill="#260f35"></rect><path d="M493 0L411 0L411 86L478 86L478 171L391 171L391 257L449 257L449 343L506 343L506 429L467 429L467 514L419 514L419 600L0 600L0 514L0 514L0 429L0 429L0 343L0 343L0 257L0 257L0 171L0 171L0 86L0 86L0 0L0 0Z" fill="#560090"></path><path d="M247 0L380 0L380 86L309 86L309 171L310 171L310 257L212 257L212 343L214 343L214 429L270 429L270 514L305 514L305 600L0 600L0 514L0 514L0 429L0 429L0 343L0 343L0 257L0 257L0 171L0 171L0 86L0 86L0 0L0 0Z" fill="#340071"></path><path d="M153 0L194 0L194 86L90 86L90 171L216 171L216 257L215 257L215 343L174 343L174 429L115 429L115 514L105 514L105 600L0 600L0 514L0 514L0 429L0 429L0 343L0 343L0 257L0 257L0 171L0 171L0 86L0 86L0 0L0 0Z" fill="#000000"></path></svg>